<svg xmlns="http://www.w3.org/2000/svg" viewBox="0 0 17.7 23.109"><defs><style>.a{fill:#ec840b;}</style></defs><g transform="translate(-1042 -879.661)"><g transform="translate(1042 881.136)"><path class="a" d="M0,5.775V8.233A1.125,1.125,0,0,0,.983,9.463a1.478,1.478,0,0,0,.983-.246c.246-.246.492-.492.492-.738a.529.529,0,0,1,.492-.492.529.529,0,0,1,.492.492A1.161,1.161,0,0,0,4.671,9.708,1.161,1.161,0,0,0,5.9,8.479a.529.529,0,0,1,.492-.492.529.529,0,0,1,.492.492A1.161,1.161,0,0,0,8.113,9.708,1.161,1.161,0,0,0,9.342,8.479a.492.492,0,1,1,.983,0,1.161,1.161,0,0,0,1.229,1.229,1.161,1.161,0,0,0,1.229-1.229.492.492,0,1,1,.983,0,1.864,1.864,0,0,0,.492.983H15a1.125,1.125,0,0,0,.983-1.229v-2.7A1.161,1.161,0,0,0,14.75,4.3H1.229A1.377,1.377,0,0,0,0,5.775Z" transform="translate(0 4.796)"/><rect class="a" width="14.504" height="2.95" transform="translate(0.738 18.684)"/><path class="a" d="M15.05,7.338h-.492a3.494,3.494,0,0,1-1.475-.492L12.838,6.6a2.232,2.232,0,0,1-1.721.738A2.232,2.232,0,0,1,9.4,6.6a2.232,2.232,0,0,1-1.721.738A2.232,2.232,0,0,1,5.954,6.6a2.232,2.232,0,0,1-1.721.738A2.232,2.232,0,0,1,2.513,6.6l-.246.246a4.558,4.558,0,0,1-1.721.492H.3V9.55H14.8V7.338Z" transform="translate(0.438 8.15)"/><rect class="a" width="3.196" height="4.425" transform="translate(6.638 3.688)"/><path class="a" d="M4.694,3.058a1.188,1.188,0,0,0,0-1.721L3.956.6l-.738.738a1.188,1.188,0,0,0,0,1.721C3.465,3.55,4.2,3.55,4.694,3.058Z" transform="translate(4.156 -0.6)"/></g><g transform="translate(1042.983 879.661)"><g transform="translate(0 9.588)"><path d="M15.4,9.554a1.478,1.478,0,0,1-.983-.246,2.673,2.673,0,0,1-.246-1.229c0-.246,0-.246-.246-.246s-.246,0-.246.246A1.586,1.586,0,0,1,12.2,9.554a1.586,1.586,0,0,1-1.475-1.475c0-.246,0-.246-.246-.246s-.246,0-.246.246A1.586,1.586,0,0,1,8.758,9.554c-.738,0-1.721-.738-1.721-1.475,0-.246,0-.246-.246-.246s-.246,0-.246.246A1.586,1.586,0,0,1,5.071,9.554,1.586,1.586,0,0,1,3.6,8.079c0-.246,0-.246-.246-.246s-.246,0-.246.246a1.277,1.277,0,0,1-.492.983,1.864,1.864,0,0,1-.983.492A1.377,1.377,0,0,1,.4,8.079V5.621A1.644,1.644,0,0,1,1.875,3.9H15.642a1.586,1.586,0,0,1,1.475,1.475v2.7A2.156,2.156,0,0,1,15.4,9.554ZM13.675,7.1a1.057,1.057,0,0,1,.983.983.869.869,0,0,0,.983.983c.492,0,.738-.492.738-.983V5.129a.785.785,0,0,0-.738-.738H1.629c-.492,0-.738.492-.738,1.229V8.079c0,.492.246.983.738.983a.9.9,0,0,0,.738-.246.761.761,0,0,0,.246-.492A1.057,1.057,0,0,1,3.6,7.342a.652.652,0,0,1,.738.738.785.785,0,0,0,.738.738.785.785,0,0,0,.738-.738A1.057,1.057,0,0,1,6.792,7.1a1.057,1.057,0,0,1,.983.983.785.785,0,0,0,.738.738,1.108,1.108,0,0,0,.738-.738,1.057,1.057,0,0,1,.983-.983,1.057,1.057,0,0,1,.983.983.738.738,0,1,0,1.475,0C12.938,7.588,13.429,7.1,13.675,7.1Z" transform="translate(-0.4 -3.9)"/></g><g transform="translate(0.492 18.93)"><path d="M15.842,11.388H.6V7.7H15.842v3.688Zm-14.5-.738H15.35V8.192H1.338Z" transform="translate(-0.6 -7.7)"/></g><g transform="translate(0.492 14.75)"><path d="M15.842,9.688H.6V6.738h.492a2.636,2.636,0,0,0,1.475-.492L2.813,6h.246l.246.246a1.844,1.844,0,0,0,2.95,0L6.5,6l.246.246a2.243,2.243,0,0,0,2.95,0L9.942,6l.246.246a2.008,2.008,0,0,0,2.95,0L13.383,6l.246.246a.241.241,0,0,0,.246.246,1.806,1.806,0,0,0,1.475.492h.492v2.7ZM1.338,8.95H15.35V7.475a2.649,2.649,0,0,1-1.967-.492h0a2.953,2.953,0,0,1-3.442,0,2.953,2.953,0,0,1-3.442,0,2.953,2.953,0,0,1-3.442,0,3.553,3.553,0,0,1-1.721.492h0Z" transform="translate(-0.6 -6)"/></g><g transform="translate(6.392 3.933)"><path d="M6.688,6.517H3V1.6H6.688Zm-3.2-.738H5.95V2.092H3.492Z" transform="translate(-3 -1.6)"/></g><g transform="translate(6.76)"><path d="M4.5,3.688A1.864,1.864,0,0,1,3.519,3.2a1.5,1.5,0,0,1,0-1.967L4.5,0l.983.983a1.5,1.5,0,0,1,0,1.967h0C5.24,3.442,4.994,3.688,4.5,3.688Zm0-2.7-.492.492a1.1,1.1,0,0,0,0,1.229,1.1,1.1,0,0,0,1.229,0,1.1,1.1,0,0,0,0-1.229Z" transform="translate(-3.15)"/></g></g></g></svg>